KouangSiWaterfall-Regular.191211-1211.ufo
<glyph name="uni0E82" format="2">
  <advance width="611"/>
  <unicode hex="0E82"/>
  <anchor x="302" y="580" name="top"/>
  <anchor x="308" y="-15" name="bottom"/>
  <outline>
    <contour>
      <point x="284" y="580" type="curve" smooth="yes"/>
      <point x="165" y="572"/>
      <point x="54" y="507"/>
      <point x="54" y="397" type="curve" smooth="yes"/>
      <point x="54" y="343"/>
      <point x="93" y="281"/>
      <point x="132" y="281" type="curve" smooth="yes"/>
      <point x="218" y="281"/>
      <point x="218" y="328"/>
      <point x="216" y="378" type="curve" smooth="yes"/>
      <point x="214" y="429"/>
      <point x="198" y="452"/>
      <point x="164" y="453" type="curve"/>
      <point x="185" y="475"/>
      <point x="218" y="483"/>
      <point x="250" y="485" type="curve" smooth="yes"/>
      <point x="381" y="492"/>
      <point x="410" y="414"/>
      <point x="407" y="368" type="curve" smooth="yes"/>
      <point x="400" y="249"/>
      <point x="189" y="249"/>
      <point x="89" y="157" type="curve" smooth="yes"/>
      <point x="62" y="133"/>
      <point x="46" y="109"/>
      <point x="54" y="74" type="curve" smooth="yes"/>
      <point x="69" y="8"/>
      <point x="97" y="-13"/>
      <point x="180" y="-20" type="curve" smooth="yes"/>
      <point x="271" y="-28"/>
      <point x="315" y="26"/>
      <point x="407" y="44" type="curve" smooth="yes"/>
      <point x="437" y="50"/>
      <point x="445" y="0"/>
      <point x="459" y="-12" type="curve" smooth="yes"/>
      <point x="490" y="-38"/>
      <point x="560" y="-38"/>
      <point x="563" y="-20" type="curve" smooth="yes"/>
      <point x="572" y="44"/>
      <point x="506" y="128"/>
      <point x="468" y="135" type="curve" smooth="yes"/>
      <point x="374" y="153"/>
      <point x="328" y="81"/>
      <point x="233" y="74" type="curve" smooth="yes"/>
      <point x="204" y="72"/>
      <point x="158" y="89"/>
      <point x="168" y="113" type="curve" smooth="yes"/>
      <point x="198" y="184"/>
      <point x="300" y="185"/>
      <point x="459" y="253" type="curve" smooth="yes"/>
      <point x="513" y="276"/>
      <point x="534" y="333"/>
      <point x="530" y="390" type="curve" smooth="yes"/>
      <point x="518" y="543"/>
      <point x="365" y="585"/>
    </contour>
  </outline>
</glyph>
<glyph name="uni0E84" format="2">
  <advance width="622"/>
  <unicode hex="0E84"/>
  <anchor x="310" y="539" name="top"/>
  <anchor x="314" y="-15" name="bottom"/>
  <outline>
    <contour>
      <point x="67.2286" y="114.037" type="line"/>
      <point x="67.2286" y="52.2399"/>
      <point x="105.852" y="-36.5927"/>
      <point x="179.235" y="-36.5927" type="curve" smooth="yes"/>
      <point x="229.445" y="-36.5927"/>
      <point x="252.618" y="17.4793"/>
      <point x="252.618" y="63.8268" type="curve" smooth="yes"/>
      <point x="252.618" y="110.174"/>
      <point x="194.684" y="106.312"/>
      <point x="179.235" y="144.935" type="curve" smooth="yes"/>
      <point x="156.061" y="195.145"/>
      <point x="268.068" y="175.833"/>
      <point x="268.068" y="210.594" type="curve" smooth="yes"/>
      <point x="271.93" y="291.702"/>
      <point x="183.097" y="260.803"/>
      <point x="183.097" y="303.289" type="curve" smooth="yes"/>
      <point x="183.097" y="372.81"/>
      <point x="256.481" y="426.882"/>
      <point x="322.14" y="426.882" type="curve" smooth="yes"/>
      <point x="414.835" y="426.882"/>
      <point x="453.457" y="349.636"/>
      <point x="453.457" y="264.666" type="curve" smooth="yes"/>
      <point x="453.457" y="183.558"/>
      <point x="380.074" y="117.899"/>
      <point x="380.074" y="52.2399" type="curve" smooth="yes"/>
      <point x="380.074" y="21.3416"/>
      <point x="434.146" y="-21.1435"/>
      <point x="465.044" y="-21.1435" type="curve" smooth="yes"/>
      <point x="550.015" y="-21.1435"/>
      <point x="561.601" y="183.558"/>
      <point x="561.601" y="233.767" type="curve"/>
      <point x="561.601" y="241.492"/>
      <point x="561.601" y="283.977"/>
      <point x="561.601" y="291.702" type="curve"/>
      <point x="542.29" y="426.882"/>
      <point x="453.457" y="538.888"/>
      <point x="310.553" y="538.888" type="curve" smooth="yes"/>
      <point x="202.409" y="538.888"/>
      <point x="71.0909" y="453.918"/>
      <point x="71.0909" y="338.049" type="curve" smooth="yes"/>
      <point x="71.0909" y="299.426"/>
      <point x="109.714" y="272.39"/>
      <point x="109.714" y="241.492" type="curve" smooth="yes"/>
      <point x="109.714" y="206.731"/>
      <point x="63.3664" y="187.42"/>
      <point x="67.2286" y="114.037" type="curve"/>
    </contour>
  </outline>
</glyph>
<glyph name="uni0E88" format="2">
  <advance width="563"/>
  <unicode hex="0E88"/>
  <anchor x="274" y="520" name="top"/>
  <anchor x="270" y="0" name="bottom"/>
  <outline>
    <contour>
      <point x="463" y="3" type="curve"/>
      <point x="462" y="1" type="line"/>
      <point x="447" y="-7"/>
      <point x="344" y="-14"/>
      <point x="335" y="0" type="curve"/>
      <point x="335" y="1"/>
      <point x="335" y="2"/>
      <point x="335" y="3" type="curve"/>
      <point x="340" y="108"/>
      <point x="339" y="100"/>
      <point x="335" y="154" type="curve" smooth="yes"/>
      <point x="334" y="171"/>
      <point x="313" y="196"/>
      <point x="304" y="211" type="curve" smooth="yes"/>
      <point x="289" y="236"/>
      <point x="247" y="282"/>
      <point x="209" y="251" type="curve" smooth="yes"/>
      <point x="202" y="245"/>
      <point x="203" y="237"/>
      <point x="201" y="233" type="curve"/>
      <point x="228" y="266"/>
      <point x="273" y="233"/>
      <point x="279" y="211" type="curve" smooth="yes"/>
      <point x="288" y="177"/>
      <point x="269" y="166"/>
      <point x="249" y="153" type="curve" smooth="yes"/>
      <point x="226" y="138"/>
      <point x="181" y="153"/>
      <point x="166" y="182" type="curve" smooth="yes"/>
      <point x="154" y="204"/>
      <point x="138" y="284"/>
      <point x="209" y="308" type="curve" smooth="yes"/>
      <point x="314" y="343"/>
      <point x="400" y="273"/>
      <point x="435" y="216" type="curve" smooth="yes"/>
      <point x="520" y="78"/>
      <point x="463" y="82"/>
    </contour>
    <contour>
      <point x="164" y="432" type="curve"/>
      <point x="164" y="432"/>
      <point x="164" y="431"/>
      <point x="164" y="431" type="curve"/>
      <point x="140" y="414"/>
      <point x="144" y="400"/>
      <point x="116" y="350" type="curve" smooth="yes"/>
      <point x="112" y="343"/>
      <point x="42" y="342"/>
      <point x="47" y="369" type="curve" smooth="yes"/>
      <point x="53" y="403"/>
      <point x="67" y="424"/>
      <point x="96" y="467" type="curve"/>
      <point x="144" y="529"/>
      <point x="198" y="540"/>
      <point x="273" y="540" type="curve" smooth="yes"/>
      <point x="314" y="540"/>
      <point x="379" y="520"/>
      <point x="407" y="488" type="curve" smooth="yes"/>
      <point x="482" y="403"/>
      <point x="501" y="324"/>
      <point x="501" y="216" type="curve" smooth="yes"/>
      <point x="501" y="139"/>
      <point x="495" y="75"/>
      <point x="457" y="10" type="curve" smooth="yes"/>
      <point x="453" y="4"/>
      <point x="449" y="1"/>
      <point x="441" y="1" type="curve" smooth="yes"/>
      <point x="415" y="1"/>
      <point x="373" y="50"/>
      <point x="352" y="67" type="curve"/>
      <point x="350" y="76" type="line"/>
      <point x="352" y="80" type="line" smooth="yes"/>
      <point x="359" y="92"/>
      <point x="369" y="103"/>
      <point x="376" y="115" type="curve" smooth="yes"/>
      <point x="404" y="161"/>
      <point x="391" y="199"/>
      <point x="391" y="253" type="curve" smooth="yes"/>
      <point x="391" y="329"/>
      <point x="323" y="451"/>
      <point x="235" y="451" type="curve" smooth="yes"/>
      <point x="219" y="451"/>
      <point x="174" y="447"/>
    </contour>
  </outline>
</glyph>
<glyph name="uni0E8A" format="2">
  <advance width="579"/>
  <unicode hex="0E8A"/>
  <anchor x="293" y="523" name="top"/>
  <anchor x="245" y="-115" name="bottom"/>
  <outline>
    <contour>
      <point x="461" y="-77" type="curve" smooth="yes"/>
      <point x="461" y="-37"/>
      <point x="460" y="38"/>
      <point x="402" y="38" type="curve" smooth="yes"/>
      <point x="338" y="38"/>
      <point x="274" y="-21"/>
      <point x="198" y="-21" type="curve" smooth="yes"/>
      <point x="123" y="-21"/>
      <point x="50" y="3"/>
      <point x="50" y="91" type="curve" smooth="yes"/>
      <point x="50" y="229"/>
      <point x="438" y="244"/>
      <point x="421" y="378" type="curve" smooth="yes"/>
      <point x="408" y="483"/>
      <point x="294" y="495"/>
      <point x="256" y="495" type="curve" smooth="yes"/>
      <point x="198" y="495"/>
      <point x="181" y="473"/>
      <point x="162" y="453" type="curve"/>
      <point x="210" y="452"/>
      <point x="214" y="426"/>
      <point x="214" y="378" type="curve" smooth="yes"/>
      <point x="214" y="342"/>
      <point x="183" y="281"/>
      <point x="125" y="281" type="curve" smooth="yes"/>
      <point x="68" y="281"/>
      <point x="52" y="360"/>
      <point x="52" y="397" type="curve" smooth="yes"/>
      <point x="52" y="431"/>
      <point x="74" y="470"/>
      <point x="99" y="492" type="curve" smooth="yes"/>
      <point x="159" y="544"/>
      <point x="198" y="574"/>
      <point x="284" y="574" type="curve" smooth="yes"/>
      <point x="338" y="574"/>
      <point x="386" y="556"/>
      <point x="440" y="511" type="curve" smooth="yes"/>
      <point x="476" y="481"/>
      <point x="512" y="419"/>
      <point x="512" y="372" type="curve" smooth="yes"/>
      <point x="512" y="317"/>
      <point x="486" y="274"/>
      <point x="456" y="253" type="curve" smooth="yes"/>
      <point x="423" y="230"/>
      <point x="386" y="214"/>
      <point x="349" y="201" type="curve"/>
      <point x="292" y="183"/>
      <point x="165" y="132"/>
      <point x="166" y="113" type="curve" smooth="yes"/>
      <point x="166" y="111"/>
      <point x="165" y="109"/>
      <point x="165" y="106" type="curve" smooth="yes"/>
      <point x="165" y="84"/>
      <point x="207" y="74"/>
      <point x="224" y="74" type="curve" smooth="yes"/>
      <point x="311" y="74"/>
      <point x="373" y="123"/>
      <point x="458" y="123" type="curve" smooth="yes"/>
      <point x="527" y="123"/>
      <point x="534" y="-11"/>
      <point x="534" y="-60" type="curve" smooth="yes"/>
      <point x="534" y="-163"/>
      <point x="521" y="-200"/>
      <point x="425" y="-213" type="curve"/>
      <point x="418" y="-213" type="line" smooth="yes"/>
      <point x="413" y="-213"/>
      <point x="400" y="-212"/>
      <point x="399" y="-204" type="curve"/>
      <point x="400" y="-202"/>
      <point x="402" y="-200"/>
      <point x="404" y="-199" type="curve" smooth="yes"/>
      <point x="451" y="-171"/>
      <point x="461" y="-127"/>
    </contour>
  </outline>
</glyph>
<glyph name="uni0E8D" format="2">
  <advance width="616"/>
  <unicode hex="0E8D"/>
  <anchor x="312" y="537" name="top"/>
  <anchor x="312" y="-33" name="bottom"/>
  <outline>
    <contour>
      <point x="65" y="400" type="curve" smooth="yes"/>
      <point x="65" y="337"/>
      <point x="108" y="313"/>
      <point x="108" y="282" type="curve" smooth="yes"/>
      <point x="108" y="250"/>
      <point x="69" y="224"/>
      <point x="69" y="185" type="curve" smooth="yes"/>
      <point x="69" y="68"/>
      <point x="201" y="-16"/>
      <point x="308" y="-16" type="curve" smooth="yes"/>
      <point x="425" y="-16"/>
      <point x="509" y="60"/>
      <point x="544" y="168" type="curve" smooth="yes"/>
      <point x="550" y="186"/>
      <point x="559" y="212"/>
      <point x="559" y="231" type="curve" smooth="yes"/>
      <point x="559" y="289" type="line" smooth="yes"/>
      <point x="559" y="337"/>
      <point x="501" y="544"/>
      <point x="463" y="544" type="curve" smooth="yes"/>
      <point x="435" y="544"/>
      <point x="378" y="501"/>
      <point x="378" y="471" type="curve" smooth="yes"/>
      <point x="378" y="404"/>
      <point x="451" y="339"/>
      <point x="451" y="258" type="curve" smooth="yes"/>
      <point x="451" y="175"/>
      <point x="414" y="78"/>
      <point x="320" y="78" type="curve" smooth="yes"/>
      <point x="254" y="78"/>
      <point x="181" y="150"/>
      <point x="181" y="220" type="curve" smooth="yes"/>
      <point x="181" y="260"/>
      <point x="266" y="216"/>
      <point x="266" y="302" type="curve" smooth="yes"/>
      <point x="266" y="355"/>
      <point x="194" y="321"/>
      <point x="177" y="378" type="curve"/>
      <point x="220" y="386"/>
      <point x="250" y="414"/>
      <point x="250" y="459" type="curve" smooth="yes"/>
      <point x="250" y="503"/>
      <point x="229" y="560"/>
      <point x="177" y="560" type="curve" smooth="yes"/>
      <point x="99" y="560"/>
      <point x="65" y="465"/>
    </contour>
  </outline>
</glyph>
<glyph name="uni0E94" format="2">
  <advance width="579"/>
  <unicode hex="0E94"/>
  <anchor x="290" y="500" name="top"/>
  <anchor x="292" y="-13" name="bottom"/>
  <outline>
    <contour>
      <point x="161" y="193" type="curve"/>
      <point x="170" y="193"/>
      <point x="178" y="199"/>
      <point x="186" y="199" type="curve" smooth="yes"/>
      <point x="243" y="199"/>
      <point x="240" y="155"/>
      <point x="240" y="114" type="curve" smooth="yes"/>
      <point x="240" y="79"/>
      <point x="222" y="-16"/>
      <point x="174" y="-16" type="curve" smooth="yes"/>
      <point x="89" y="-16"/>
      <point x="57" y="158"/>
      <point x="57" y="219" type="curve" smooth="yes"/>
      <point x="57" y="312"/>
      <point x="77" y="385"/>
      <point x="135" y="460" type="curve" smooth="yes"/>
      <point x="183" y="522"/>
      <point x="237" y="533"/>
      <point x="312" y="533" type="curve" smooth="yes"/>
      <point x="353" y="533"/>
      <point x="418" y="513"/>
      <point x="446" y="481" type="curve" smooth="yes"/>
      <point x="521" y="396"/>
      <point x="527" y="312"/>
      <point x="527" y="204" type="curve" smooth="yes"/>
      <point x="527" y="127"/>
      <point x="490" y="49"/>
      <point x="452" y="-16" type="curve" smooth="yes"/>
      <point x="448" y="-22"/>
      <point x="444" y="-25"/>
      <point x="436" y="-25" type="curve" smooth="yes"/>
      <point x="410" y="-25"/>
      <point x="368" y="24"/>
      <point x="347" y="41" type="curve"/>
      <point x="345" y="50" type="line"/>
      <point x="347" y="54" type="line" smooth="yes"/>
      <point x="354" y="66"/>
      <point x="364" y="77"/>
      <point x="371" y="89" type="curve" smooth="yes"/>
      <point x="399" y="135"/>
      <point x="417" y="187"/>
      <point x="417" y="241" type="curve" smooth="yes"/>
      <point x="417" y="317"/>
      <point x="362" y="444"/>
      <point x="274" y="444" type="curve" smooth="yes"/>
      <point x="258" y="444"/>
      <point x="213" y="440"/>
      <point x="203" y="425" type="curve" smooth="yes"/>
      <point x="171" y="375"/>
      <point x="154" y="315"/>
      <point x="154" y="257" type="curve" smooth="yes"/>
      <point x="154" y="238"/>
      <point x="154" y="214"/>
      <point x="159" y="196" type="curve"/>
      <point x="159" y="195"/>
      <point x="160" y="193"/>
    </contour>
  </outline>
</glyph>
<glyph name="uni0E96" format="2">
  <advance width="668"/>
  <unicode hex="0E96"/>
  <anchor x="330" y="576" name="top"/>
  <anchor x="302" y="-95" name="bottom"/>
  <outline>
    <contour>
      <point x="268" y="-28" type="curve" smooth="yes"/>
      <point x="315" y="-28"/>
      <point x="349" y="0"/>
      <point x="349" y="92" type="curve" smooth="yes"/>
      <point x="349" y="141"/>
      <point x="314" y="179"/>
      <point x="265" y="175" type="curve" smooth="yes"/>
      <point x="236" y="173"/>
      <point x="248" y="303"/>
      <point x="254" y="350" type="curve" smooth="yes"/>
      <point x="263" y="419"/>
      <point x="314" y="454"/>
      <point x="357" y="452" type="curve" smooth="yes"/>
      <point x="385" y="451"/>
      <point x="394" y="444"/>
      <point x="420" y="419" type="curve" smooth="yes"/>
      <point x="460" y="380"/>
      <point x="481" y="305"/>
      <point x="481" y="248" type="curve" smooth="yes"/>
      <point x="481" y="179"/>
      <point x="481" y="92"/>
      <point x="484" y="30" type="curve"/>
      <point x="492" y="-32"/>
      <point x="509" y="-226"/>
      <point x="535" y="-250" type="curve"/>
      <point x="544" y="-260"/>
      <point x="633" y="-250"/>
      <point x="620" y="-226" type="curve"/>
      <point x="620" y="-227" type="line"/>
      <point x="569" y="-130"/>
      <point x="577" y="141"/>
      <point x="582" y="254" type="curve" smooth="yes"/>
      <point x="586" y="353"/>
      <point x="548" y="444"/>
      <point x="498" y="492" type="curve" smooth="yes"/>
      <point x="468" y="521"/>
      <point x="444" y="540"/>
      <point x="392" y="541" type="curve" smooth="yes"/>
      <point x="305" y="542"/>
      <point x="271" y="487"/>
      <point x="247" y="460" type="curve" smooth="yes"/>
      <point x="241" y="453"/>
      <point x="256" y="549"/>
      <point x="180" y="576" type="curve" smooth="yes"/>
      <point x="149" y="587"/>
      <point x="95" y="580"/>
      <point x="70" y="556" type="curve" smooth="yes"/>
      <point x="46" y="533"/>
      <point x="49" y="471"/>
      <point x="70" y="454" type="curve" smooth="yes"/>
      <point x="118" y="414"/>
      <point x="127" y="407"/>
      <point x="142" y="379" type="curve" smooth="yes"/>
      <point x="163" y="340"/>
      <point x="169" y="287"/>
      <point x="169" y="241" type="curve"/>
      <point x="158" y="14"/>
      <point x="223" y="-28"/>
    </contour>
    <contour>
      <point x="211" y="4" type="move"/>
      <point x="211" y="5" type="line"/>
    </contour>
  </outline>
</glyph>
<glyph name="uni0E97" format="2">
  <advance width="781"/>
  <unicode hex="0E97"/>
  <anchor x="484" y="500" name="top"/>
  <anchor x="484" y="-30" name="bottom"/>
  <outline>
    <contour>
      <point x="260.72" y="104.205" type="line"/>
      <point x="306.396" y="104.205"/>
      <point x="329.235" y="153.688"/>
      <point x="329.235" y="195.558" type="curve" smooth="yes"/>
      <point x="329.235" y="370.65" type="line" smooth="yes"/>
      <point x="329.235" y="439.164"/>
      <point x="409.168" y="526.711"/>
      <point x="473.876" y="541.936" type="curve"/>
      <point x="477.682" y="541.936"/>
      <point x="496.714" y="541.936"/>
      <point x="504.327" y="541.936" type="curve"/>
      <point x="664.194" y="541.936"/>
      <point x="694.645" y="351.618"/>
      <point x="694.645" y="226.009" type="curve" smooth="yes"/>
      <point x="694.645" y="187.945"/>
      <point x="679.419" y="-9.98529"/>
      <point x="610.905" y="-9.98529" type="curve" smooth="yes"/>
      <point x="576.648" y="-9.98529"/>
      <point x="511.94" y="35.691"/>
      <point x="530.971" y="66.1418" type="curve" smooth="yes"/>
      <point x="572.841" y="138.463"/>
      <point x="580.454" y="187.945"/>
      <point x="580.454" y="260.266" type="curve" smooth="yes"/>
      <point x="580.454" y="336.393"/>
      <point x="553.809" y="446.777"/>
      <point x="462.457" y="446.777" type="curve"/>
      <point x="458.651" y="446.777"/>
      <point x="447.232" y="446.777"/>
      <point x="443.425" y="446.777" type="curve"/>
      <point x="428.2" y="435.358"/>
      <point x="428.2" y="420.133"/>
      <point x="428.2" y="401.101" type="curve" smooth="yes"/>
      <point x="428.2" y="344.006"/>
      <point x="435.812" y="286.91"/>
      <point x="435.812" y="229.815" type="curve" smooth="yes"/>
      <point x="435.812" y="127.043"/>
      <point x="382.524" y="-9.98529"/>
      <point x="260.72" y="-9.98529" type="curve" smooth="yes"/>
      <point x="161.755" y="-9.98529"/>
      <point x="93.2406" y="92.7863"/>
      <point x="93.2406" y="184.139" type="curve" smooth="yes"/>
      <point x="93.2406" y="237.428"/>
      <point x="119.885" y="286.91"/>
      <point x="119.885" y="336.393" type="curve" smooth="yes"/>
      <point x="119.885" y="366.844"/>
      <point x="70.4025" y="363.037"/>
      <point x="74.2089" y="427.745" type="curve" smooth="yes"/>
      <point x="78.0152" y="477.228"/>
      <point x="100.853" y="534.323"/>
      <point x="157.949" y="534.323" type="curve" smooth="yes"/>
      <point x="237.882" y="534.323"/>
      <point x="237.882" y="473.422"/>
      <point x="237.882" y="420.133" type="curve" smooth="yes"/>
      <point x="237.882" y="347.812"/>
      <point x="199.819" y="279.298"/>
      <point x="199.819" y="206.977" type="curve" smooth="yes"/>
      <point x="199.819" y="176.526"/>
      <point x="222.657" y="104.205"/>
      <point x="260.72" y="104.205" type="curve"/>
    </contour>
  </outline>
</glyph>
<glyph name="uni0E9E" format="2">
  <advance width="745"/>
  <unicode hex="0E9E"/>
  <anchor x="482" y="515" name="top"/>
  <anchor x="471" y="-17" name="bottom"/>
  <outline>
    <contour>
      <point x="336" y="184" type="curve"/>
      <point x="438" y="197" type="line"/>
      <point x="438" y="144"/>
      <point x="433" y="95"/>
      <point x="482" y="95" type="curve" smooth="yes"/>
      <point x="542" y="95"/>
      <point x="567" y="153"/>
      <point x="567" y="216" type="curve" smooth="yes"/>
      <point x="567" y="276"/>
      <point x="562" y="324"/>
      <point x="565" y="374" type="curve" smooth="yes"/>
      <point x="567" y="412"/>
      <point x="564" y="444"/>
      <point x="564" y="507" type="curve" smooth="yes"/>
      <point x="564" y="557"/>
      <point x="592" y="547"/>
      <point x="642" y="549" type="curve" smooth="yes"/>
      <point x="670" y="550"/>
      <point x="679" y="491"/>
      <point x="679" y="477" type="curve" smooth="yes"/>
      <point x="679" y="374"/>
      <point x="679" y="364"/>
      <point x="675" y="270" type="curve" smooth="yes"/>
      <point x="674" y="254"/>
      <point x="675" y="255"/>
      <point x="675" y="230" type="curve"/>
      <point x="656" y="95"/>
      <point x="587" y="-17"/>
      <point x="471" y="-17" type="curve" smooth="yes"/>
      <point x="384" y="-17"/>
      <point x="336" y="65"/>
    </contour>
    <contour>
      <point x="205" y="192" type="curve"/>
      <point x="205" y="139"/>
      <point x="206" y="93"/>
      <point x="241" y="95" type="curve" smooth="yes"/>
      <point x="327" y="99"/>
      <point x="336" y="153"/>
      <point x="336" y="216" type="curve" smooth="yes"/>
      <point x="336" y="276"/>
      <point x="331" y="324"/>
      <point x="334" y="374" type="curve" smooth="yes"/>
      <point x="336" y="412"/>
      <point x="333" y="444"/>
      <point x="333" y="507" type="curve" smooth="yes"/>
      <point x="333" y="557"/>
      <point x="361" y="547"/>
      <point x="411" y="549" type="curve" smooth="yes"/>
      <point x="439" y="550"/>
      <point x="448" y="491"/>
      <point x="448" y="477" type="curve" smooth="yes"/>
      <point x="448" y="374"/>
      <point x="448" y="364"/>
      <point x="444" y="270" type="curve" smooth="yes"/>
      <point x="443" y="254"/>
      <point x="444" y="255"/>
      <point x="444" y="230" type="curve"/>
      <point x="442" y="100"/>
      <point x="352" y="-17"/>
      <point x="229" y="-17" type="curve" smooth="yes"/>
      <point x="138" y="-17"/>
      <point x="103" y="59"/>
      <point x="103" y="178" type="curve" smooth="yes"/>
      <point x="103" y="219"/>
      <point x="111" y="254"/>
      <point x="118" y="286" type="curve" smooth="yes"/>
      <point x="125" y="320"/>
      <point x="174" y="401"/>
      <point x="130" y="407" type="curve"/>
      <point x="87" y="415"/>
      <point x="57" y="442"/>
      <point x="57" y="488" type="curve" smooth="yes"/>
      <point x="57" y="535"/>
      <point x="80" y="589"/>
      <point x="130" y="589" type="curve" smooth="yes"/>
      <point x="203" y="589"/>
      <point x="245" y="535"/>
      <point x="242" y="376" type="curve" smooth="yes"/>
      <point x="241" y="323"/>
      <point x="203" y="228"/>
    </contour>
  </outline>
</glyph>
<glyph name="uni0E9F" format="2">
  <advance width="742"/>
  <unicode hex="0E9F"/>
  <anchor x="466" y="626" name="top"/>
  <anchor x="477" y="-17" name="bottom"/>
  <outline>
    <contour>
      <point x="237" y="369" type="curve" smooth="yes"/>
      <point x="236" y="316"/>
      <point x="198" y="228"/>
      <point x="200" y="192" type="curve"/>
      <point x="200" y="139"/>
      <point x="201" y="93"/>
      <point x="236" y="95" type="curve" smooth="yes"/>
      <point x="322" y="99"/>
      <point x="331" y="153"/>
      <point x="331" y="216" type="curve" smooth="yes"/>
      <point x="331" y="276"/>
      <point x="326" y="324"/>
      <point x="329" y="374" type="curve" smooth="yes"/>
      <point x="331" y="412"/>
      <point x="328" y="444"/>
      <point x="328" y="507" type="curve" smooth="yes"/>
      <point x="328" y="557"/>
      <point x="356" y="547"/>
      <point x="406" y="549" type="curve" smooth="yes"/>
      <point x="434" y="550"/>
      <point x="443" y="491"/>
      <point x="443" y="477" type="curve" smooth="yes"/>
      <point x="443" y="374"/>
      <point x="443" y="364"/>
      <point x="439" y="270" type="curve" smooth="yes"/>
      <point x="438" y="254"/>
      <point x="439" y="255"/>
      <point x="439" y="230" type="curve"/>
      <point x="437" y="100"/>
      <point x="347" y="-17"/>
      <point x="224" y="-17" type="curve" smooth="yes"/>
      <point x="133" y="-17"/>
      <point x="98" y="57"/>
      <point x="98" y="174" type="curve" smooth="yes"/>
      <point x="98" y="214"/>
      <point x="100" y="250"/>
      <point x="113" y="279" type="curve" smooth="yes"/>
      <point x="127" y="311"/>
      <point x="169" y="394"/>
      <point x="125" y="400" type="curve"/>
      <point x="82" y="408"/>
      <point x="52" y="435"/>
      <point x="52" y="481" type="curve" smooth="yes"/>
      <point x="52" y="528"/>
      <point x="75" y="582"/>
      <point x="125" y="582" type="curve" smooth="yes"/>
      <point x="198" y="582"/>
      <point x="240" y="528"/>
    </contour>
    <contour>
      <point x="562" y="216" type="curve" smooth="yes"/>
      <point x="562" y="301"/>
      <point x="566" y="370"/>
      <point x="560" y="439" type="curve" smooth="yes"/>
      <point x="556" y="487"/>
      <point x="568" y="559"/>
      <point x="582" y="626" type="curve" smooth="yes"/>
      <point x="592" y="675"/>
      <point x="639" y="673"/>
      <point x="689" y="675" type="curve" smooth="yes"/>
      <point x="717" y="676"/>
      <point x="699" y="651"/>
      <point x="696" y="643" type="curve" smooth="yes"/>
      <point x="665" y="559"/>
      <point x="661" y="498"/>
      <point x="670" y="244" type="curve" smooth="yes"/>
      <point x="671" y="219"/>
      <point x="670" y="255"/>
      <point x="670" y="230" type="curve"/>
      <point x="651" y="95"/>
      <point x="582" y="-17"/>
      <point x="466" y="-17" type="curve" smooth="yes"/>
      <point x="379" y="-17"/>
      <point x="331" y="65"/>
      <point x="331" y="184" type="curve"/>
      <point x="433" y="197" type="line"/>
      <point x="433" y="144"/>
      <point x="428" y="95"/>
      <point x="477" y="95" type="curve" smooth="yes"/>
      <point x="537" y="95"/>
      <point x="562" y="153"/>
    </contour>
  </outline>
</glyph>
<glyph name="uni0EAD" format="2">
  <advance width="608"/>
  <unicode hex="0EAD"/>
  <anchor x="374" y="549" name="top"/>
  <anchor x="295" y="-13" name="bottom"/>
  <outline>
    <contour>
      <point x="53" y="391.456" type="curve" smooth="yes"/>
      <point x="53" y="497.852"/>
      <point x="224.871" y="571.511"/>
      <point x="314.899" y="571.511" type="curve" smooth="yes"/>
      <point x="466.31" y="571.511"/>
      <point x="539.969" y="432.377"/>
      <point x="539.969" y="289.151" type="curve" smooth="yes"/>
      <point x="539.969" y="133.649"/>
      <point x="462.218" y="-17.7619"/>
      <point x="294.438" y="-17.7619" type="curve" smooth="yes"/>
      <point x="220.779" y="-17.7619"/>
      <point x="57.0922" y="19.0677"/>
      <point x="57.0922" y="117.28" type="curve" smooth="yes"/>
      <point x="57.0922" y="182.755"/>
      <point x="134.844" y="227.769"/>
      <point x="192.134" y="227.769" type="curve"/>
      <point x="224.871" y="207.308"/>
      <point x="212.595" y="145.925"/>
      <point x="196.226" y="117.28" type="curve" smooth="yes"/>
      <point x="188.042" y="100.911"/>
      <point x="208.503" y="96.819"/>
      <point x="233.056" y="92.7268" type="curve" smooth="yes"/>
      <point x="265.793" y="88.6346"/>
      <point x="318.991" y="84.5425"/>
      <point x="351.729" y="92.7268" type="curve" smooth="yes"/>
      <point x="392.651" y="105.003"/>
      <point x="437.664" y="178.662"/>
      <point x="445.849" y="235.953" type="curve"/>
      <point x="441.757" y="235.953" type="line"/>
      <point x="400.835" y="235.953"/>
      <point x="359.913" y="215.492"/>
      <point x="318.991" y="215.492" type="curve" smooth="yes"/>
      <point x="224.871" y="215.492"/>
      <point x="53" y="276.875"/>
    </contour>
    <contour>
      <point x="143.028" y="424.193" type="curve" smooth="yes"/>
      <point x="143.028" y="280.967"/>
      <point x="339.452" y="301.428"/>
      <point x="413.111" y="301.428" type="curve"/>
      <point x="417.204" y="301.428"/>
      <point x="445.849" y="301.428"/>
      <point x="445.849" y="313.704" type="curve" smooth="yes"/>
      <point x="445.849" y="416.009"/>
      <point x="429.48" y="461.023"/>
      <point x="286.254" y="477.391" type="curve" smooth="yes"/>
      <point x="237.148" y="481.483"/>
      <point x="143.028" y="461.023"/>
    </contour>
  </outline>
</glyph>
<glyph name="uni0EAE" format="2">
  <advance width="652"/>
  <unicode hex="0EAE"/>
  <anchor x="323" y="531" name="top"/>
  <anchor x="321" y="-27" name="bottom"/>
  <outline>
    <contour>
      <point x="141" y="261" type="curve" smooth="yes"/>
      <point x="96" y="261"/>
      <point x="68" y="182"/>
      <point x="68" y="145" type="curve" smooth="yes"/>
      <point x="68" y="111"/>
      <point x="80" y="73"/>
      <point x="105" y="51" type="curve" smooth="yes"/>
      <point x="165" y="-1"/>
      <point x="192" y="-29"/>
      <point x="278" y="-29" type="curve" smooth="yes"/>
      <point x="358" y="-29"/>
      <point x="395" y="-16"/>
      <point x="457" y="33" type="curve" smooth="yes"/>
      <point x="492" y="61"/>
      <point x="535" y="100"/>
      <point x="535" y="147" type="curve" smooth="yes"/>
      <point x="535" y="202"/>
      <point x="528" y="265"/>
      <point x="473" y="289" type="curve" smooth="yes"/>
      <point x="437" y="305"/>
      <point x="399" y="318"/>
      <point x="362" y="331" type="curve"/>
      <point x="305" y="349"/>
      <point x="208" y="369"/>
      <point x="182" y="429" type="curve" smooth="yes"/>
      <point x="181" y="431"/>
      <point x="181" y="433"/>
      <point x="181" y="436" type="curve" smooth="yes"/>
      <point x="181" y="457"/>
      <point x="222" y="468"/>
      <point x="239" y="468" type="curve" smooth="yes"/>
      <point x="327" y="468"/>
      <point x="363" y="407"/>
      <point x="488" y="407" type="curve" smooth="yes"/>
      <point x="535" y="407"/>
      <point x="579" y="498"/>
      <point x="579" y="538" type="curve" smooth="yes"/>
      <point x="579" y="569"/>
      <point x="575" y="578"/>
      <point x="541" y="575" type="curve" smooth="yes"/>
      <point x="472" y="569"/>
      <point x="488" y="500"/>
      <point x="426" y="498" type="curve" smooth="yes"/>
      <point x="363" y="496"/>
      <point x="292" y="563"/>
      <point x="212" y="563" type="curve" smooth="yes"/>
      <point x="138" y="563"/>
      <point x="66" y="538"/>
      <point x="66" y="451" type="curve" smooth="yes"/>
      <point x="66" y="313"/>
      <point x="421" y="309"/>
      <point x="421" y="174" type="curve" smooth="yes"/>
      <point x="421" y="117"/>
      <point x="306" y="57"/>
      <point x="256" y="57" type="curve" smooth="yes"/>
      <point x="228" y="57"/>
      <point x="197" y="69"/>
      <point x="178" y="89" type="curve"/>
      <point x="204" y="116"/>
      <point x="230" y="116"/>
      <point x="230" y="164" type="curve" smooth="yes"/>
      <point x="230" y="211"/>
      <point x="192" y="261"/>
    </contour>
  </outline>
</glyph>
<glyph name="uni0EB1" format="2">
  <advance width="-2"/>
  <unicode hex="0EB1"/>
  <anchor x="-236" y="520" name="_top"/>
  <anchor x="-182" y="815" name="tonemark"/>
  <outline>
    <contour>
      <point x="-461" y="737" type="curve" smooth="yes"/>
      <point x="-460" y="769"/>
      <point x="-430" y="801"/>
      <point x="-393" y="801" type="curve" smooth="yes"/>
      <point x="-344" y="801"/>
      <point x="-292" y="788"/>
      <point x="-286" y="738" type="curve" smooth="yes"/>
      <point x="-283" y="712"/>
      <point x="-315" y="692"/>
      <point x="-312" y="687" type="curve" smooth="yes"/>
      <point x="-308" y="682"/>
      <point x="-177" y="693"/>
      <point x="-117" y="779" type="curve" smooth="yes"/>
      <point x="-94" y="812"/>
      <point x="15" y="769"/>
      <point x="-3" y="747" type="curve" smooth="yes"/>
      <point x="-37" y="707"/>
      <point x="-42" y="711"/>
      <point x="-88" y="675" type="curve" smooth="yes"/>
      <point x="-133" y="640"/>
      <point x="-182" y="622"/>
      <point x="-236" y="625" type="curve" smooth="yes"/>
      <point x="-337" y="631"/>
      <point x="-462" y="691"/>
    </contour>
  </outline>
</glyph>
<glyph name="uni0EB2" format="2">
  <advance width="329"/>
  <unicode hex="0EB2"/>
  <outline>
    <contour>
      <point x="196" y="1" type="curve"/>
      <point x="194" y="0" type="line"/>
      <point x="177" y="1"/>
      <point x="87" y="51"/>
      <point x="87" y="67" type="curve"/>
      <point x="87" y="68"/>
      <point x="88" y="69"/>
      <point x="88" y="70" type="curve"/>
      <point x="149" y="156"/>
      <point x="163" y="196"/>
      <point x="179" y="294" type="curve" smooth="yes"/>
      <point x="183" y="317"/>
      <point x="184" y="354"/>
      <point x="185" y="376" type="curve" smooth="yes"/>
      <point x="186" y="412"/>
      <point x="174" y="491"/>
      <point x="111" y="484" type="curve" smooth="yes"/>
      <point x="99" y="483"/>
      <point x="95" y="473"/>
      <point x="89" y="469" type="curve"/>
      <point x="141" y="487"/>
      <point x="168" y="458"/>
      <point x="166" y="399" type="curve" smooth="yes"/>
      <point x="164" y="335"/>
      <point x="119" y="326"/>
      <point x="87" y="326" type="curve" smooth="yes"/>
      <point x="53" y="326"/>
      <point x="23" y="352"/>
      <point x="22" y="411" type="curve" smooth="yes"/>
      <point x="21" y="471"/>
      <point x="56" y="559"/>
      <point x="149" y="544" type="curve" smooth="yes"/>
      <point x="282" y="522"/>
      <point x="282" y="347"/>
      <point x="281" y="280" type="curve" smooth="yes"/>
      <point x="278" y="118"/>
      <point x="239" y="67"/>
    </contour>
  </outline>
</glyph>
<glyph name="uni0EB4" format="2">
  <advance width="15"/>
  <unicode hex="0EB4"/>
  <anchor x="-342" y="534" name="_top"/>
  <anchor x="-282" y="885" name="tonemark"/>
  <outline>
    <contour>
      <point x="-315" y="667" type="curve" smooth="yes"/>
      <point x="-340" y="676"/>
      <point x="-390" y="707"/>
      <point x="-389" y="737" type="curve" smooth="yes"/>
      <point x="-387" y="783"/>
      <point x="-342" y="806"/>
      <point x="-297" y="806" type="curve"/>
      <point x="-238" y="806"/>
      <point x="-182" y="768"/>
      <point x="-182" y="714" type="curve" smooth="yes"/>
      <point x="-182" y="683"/>
      <point x="-219" y="652"/>
      <point x="-238" y="652" type="curve" smooth="yes"/>
      <point x="-247" y="652"/>
      <point x="-247" y="644"/>
      <point x="-240" y="642" type="curve" smooth="yes"/>
      <point x="-197" y="632"/>
      <point x="-74" y="628"/>
      <point x="-73" y="724" type="curve" smooth="yes"/>
      <point x="-72" y="812"/>
      <point x="-151" y="852"/>
      <point x="-266" y="853" type="curve" smooth="yes"/>
      <point x="-396" y="854"/>
      <point x="-505" y="806"/>
      <point x="-504" y="741" type="curve" smooth="yes"/>
      <point x="-503" y="669"/>
      <point x="-453" y="638"/>
      <point x="-398" y="638" type="curve" smooth="yes"/>
      <point x="-364" y="638"/>
      <point x="-337" y="648"/>
      <point x="-313" y="657" type="curve" smooth="yes"/>
      <point x="-309" y="658"/>
      <point x="-309" y="665"/>
    </contour>
  </outline>
</glyph>
<glyph name="uni0EB6" format="2">
  <advance width="-4"/>
  <unicode hex="0EB6"/>
  <anchor x="-284" y="521" name="_top"/>
  <anchor x="-230" y="864" name="tonemark"/>
  <outline>
    <contour>
      <point x="-319" y="730" type="curve" smooth="yes"/>
      <point x="-322" y="708"/>
      <point x="-305" y="697"/>
      <point x="-284" y="700" type="curve" smooth="yes"/>
      <point x="-262" y="703"/>
      <point x="-249" y="712"/>
      <point x="-249" y="730" type="curve" smooth="yes"/>
      <point x="-249" y="748"/>
      <point x="-253" y="764"/>
      <point x="-284" y="760" type="curve" smooth="yes"/>
      <point x="-311" y="757"/>
      <point x="-317" y="748"/>
    </contour>
    <contour>
      <point x="-307" y="667" type="curve" smooth="yes"/>
      <point x="-332" y="676"/>
      <point x="-382" y="707"/>
      <point x="-381" y="737" type="curve" smooth="yes"/>
      <point x="-379" y="783"/>
      <point x="-334" y="806"/>
      <point x="-289" y="806" type="curve"/>
      <point x="-230" y="806"/>
      <point x="-174" y="768"/>
      <point x="-174" y="714" type="curve" smooth="yes"/>
      <point x="-174" y="683"/>
      <point x="-211" y="652"/>
      <point x="-230" y="652" type="curve" smooth="yes"/>
      <point x="-239" y="652"/>
      <point x="-239" y="644"/>
      <point x="-232" y="642" type="curve" smooth="yes"/>
      <point x="-189" y="632"/>
      <point x="-66" y="628"/>
      <point x="-65" y="724" type="curve" smooth="yes"/>
      <point x="-64" y="812"/>
      <point x="-143" y="852"/>
      <point x="-258" y="853" type="curve" smooth="yes"/>
      <point x="-388" y="854"/>
      <point x="-497" y="806"/>
      <point x="-496" y="741" type="curve" smooth="yes"/>
      <point x="-495" y="669"/>
      <point x="-445" y="638"/>
      <point x="-390" y="638" type="curve" smooth="yes"/>
      <point x="-356" y="638"/>
      <point x="-329" y="648"/>
      <point x="-305" y="657" type="curve" smooth="yes"/>
      <point x="-301" y="658"/>
      <point x="-301" y="665"/>
    </contour>
  </outline>
</glyph>
<glyph name="uni0EB7" format="2">
  <advance width="2"/>
  <unicode hex="0EB7"/>
  <anchor x="-276" y="525" name="_top"/>
  <anchor x="-287" y="870" name="tonemark"/>
  <outline>
    <contour>
      <point x="-322" y="663" type="curve" smooth="yes"/>
      <point x="-320" y="660"/>
      <point x="-326" y="658"/>
      <point x="-326" y="655" type="curve" smooth="yes"/>
      <point x="-328" y="642"/>
      <point x="-379" y="637"/>
      <point x="-415" y="636" type="curve" smooth="yes"/>
      <point x="-475" y="635"/>
      <point x="-502" y="684"/>
      <point x="-500" y="736" type="curve" smooth="yes"/>
      <point x="-496" y="826"/>
      <point x="-367" y="840"/>
      <point x="-269" y="840" type="curve" smooth="yes"/>
      <point x="-220" y="840"/>
      <point x="-192" y="841"/>
      <point x="-149" y="803" type="curve" smooth="yes"/>
      <point x="-124" y="781"/>
      <point x="-124" y="734"/>
      <point x="-111" y="725" type="curve" smooth="yes"/>
      <point x="-98" y="716"/>
      <point x="-77" y="725"/>
      <point x="-56" y="732" type="curve" smooth="yes"/>
      <point x="-51" y="734"/>
      <point x="-46" y="729"/>
      <point x="-51" y="719" type="curve" smooth="yes"/>
      <point x="-84" y="644"/>
      <point x="-129" y="629"/>
      <point x="-181" y="631" type="curve" smooth="yes"/>
      <point x="-215" y="632"/>
      <point x="-258" y="637"/>
      <point x="-269" y="648" type="curve"/>
      <point x="-258" y="666"/>
      <point x="-221" y="676"/>
      <point x="-222" y="709" type="curve" smooth="yes"/>
      <point x="-224" y="770"/>
      <point x="-262" y="790"/>
      <point x="-310" y="796" type="curve" smooth="yes"/>
      <point x="-350" y="801"/>
      <point x="-390" y="770"/>
      <point x="-390" y="729" type="curve" smooth="yes"/>
      <point x="-390" y="697"/>
      <point x="-359" y="680"/>
      <point x="-336" y="674" type="curve" smooth="yes"/>
      <point x="-332" y="673"/>
      <point x="-325" y="668"/>
    </contour>
    <contour>
      <point x="-341" y="729" type="curve" smooth="yes"/>
      <point x="-344" y="707"/>
      <point x="-327" y="696"/>
      <point x="-306" y="699" type="curve" smooth="yes"/>
      <point x="-284" y="702"/>
      <point x="-271" y="711"/>
      <point x="-271" y="729" type="curve" smooth="yes"/>
      <point x="-271" y="747"/>
      <point x="-275" y="763"/>
      <point x="-306" y="759" type="curve" smooth="yes"/>
      <point x="-333" y="756"/>
      <point x="-339" y="747"/>
    </contour>
  </outline>
</glyph>
<glyph name="uni0EBB" format="2">
  <advance width="1"/>
  <unicode hex="0EBB"/>
  <anchor x="-298" y="558" name="_top"/>
  <anchor x="-214" y="837" name="tonemark"/>
  <outline>
    <contour>
      <point x="-494" y="710" type="curve" smooth="yes"/>
      <point x="-495" y="756"/>
      <point x="-371" y="816"/>
      <point x="-269" y="822" type="curve" smooth="yes"/>
      <point x="-216" y="825"/>
      <point x="-166" y="807"/>
      <point x="-121" y="772" type="curve" smooth="yes"/>
      <point x="-75" y="736"/>
      <point x="-82" y="710"/>
      <point x="-36" y="700" type="curve"/>
      <point x="-77" y="682"/>
      <point x="-137" y="656"/>
      <point x="-150" y="668" type="curve" smooth="yes"/>
      <point x="-279" y="787"/>
      <point x="-341" y="766"/>
      <point x="-345" y="760" type="curve"/>
      <point x="-348" y="756"/>
      <point x="-317" y="736"/>
      <point x="-319" y="709" type="curve" smooth="yes"/>
      <point x="-321" y="678"/>
      <point x="-377" y="646"/>
      <point x="-426" y="646" type="curve" smooth="yes"/>
      <point x="-463" y="646"/>
      <point x="-493" y="678"/>
    </contour>
  </outline>
</glyph>
<glyph name="uni0EBC" format="2">
  <advance width="-1"/>
  <unicode hex="0EBC"/>
  <anchor x="-283" y="0" name="_bottom"/>
  <anchor x="-283" y="-188" name="lvowel"/>
  <outline>
    <contour>
      <point x="-489" y="-174" type="curve" smooth="yes"/>
      <point x="-489" y="-127"/>
      <point x="-359" y="-50"/>
      <point x="-281" y="-47" type="curve" smooth="yes"/>
      <point x="-233" y="-45"/>
      <point x="-161" y="-140"/>
      <point x="-137" y="-140" type="curve" smooth="yes"/>
      <point x="-127" y="-140"/>
      <point x="-82" y="-111"/>
      <point x="-77" y="-126" type="curve"/>
      <point x="-74" y="-135"/>
      <point x="-202" y="-221"/>
      <point x="-224" y="-214" type="curve" smooth="yes"/>
      <point x="-282" y="-196"/>
      <point x="-323" y="-121"/>
      <point x="-356" y="-122" type="curve" smooth="yes"/>
      <point x="-362" y="-122"/>
      <point x="-370" y="-124"/>
      <point x="-370" y="-135" type="curve" smooth="yes"/>
      <point x="-370" y="-143"/>
      <point x="-357" y="-157"/>
      <point x="-344" y="-157" type="curve" smooth="yes"/>
      <point x="-327" y="-157"/>
      <point x="-321" y="-144"/>
      <point x="-306" y="-135" type="curve"/>
      <point x="-303" y="-137"/>
      <point x="-301" y="-138"/>
      <point x="-298" y="-140" type="curve"/>
      <point x="-351" y="-204"/>
      <point x="-393" y="-231"/>
      <point x="-429" y="-235" type="curve" smooth="yes"/>
      <point x="-449" y="-237"/>
      <point x="-489" y="-204"/>
    </contour>
  </outline>
</glyph>
<glyph name="uni0EC2" format="2">
  <advance width="340"/>
  <unicode hex="0EC2"/>
  <outline>
    <contour>
      <point x="127" y="599" type="curve" smooth="yes"/>
      <point x="96" y="707"/>
      <point x="-32" y="713"/>
      <point x="-56" y="823" type="curve" smooth="yes"/>
      <point x="-68" y="880"/>
      <point x="0" y="921"/>
      <point x="58" y="921" type="curve" smooth="yes"/>
      <point x="162" y="921"/>
      <point x="224" y="891"/>
      <point x="309" y="831" type="curve" smooth="yes"/>
      <point x="337" y="811"/>
      <point x="334" y="723"/>
      <point x="307" y="745" type="curve" smooth="yes"/>
      <point x="231" y="809"/>
      <point x="153" y="837"/>
      <point x="74" y="837" type="curve" smooth="yes"/>
      <point x="61" y="837"/>
      <point x="38" y="829"/>
      <point x="46" y="818" type="curve" smooth="yes"/>
      <point x="105" y="737"/>
      <point x="184" y="725"/>
      <point x="222" y="632" type="curve" smooth="yes"/>
      <point x="286" y="475"/>
      <point x="222" y="390"/>
      <point x="222" y="236" type="curve" smooth="yes"/>
      <point x="222" y="217"/>
      <point x="222" y="193"/>
      <point x="227" y="175" type="curve"/>
      <point x="227" y="174"/>
      <point x="228" y="172"/>
      <point x="229" y="172" type="curve"/>
      <point x="238" y="172"/>
      <point x="246" y="178"/>
      <point x="254" y="178" type="curve" smooth="yes"/>
      <point x="311" y="178"/>
      <point x="308" y="134"/>
      <point x="308" y="93" type="curve" smooth="yes"/>
      <point x="308" y="58"/>
      <point x="290" y="-37"/>
      <point x="242" y="-37" type="curve" smooth="yes"/>
      <point x="157" y="-37"/>
      <point x="125" y="143"/>
      <point x="125" y="204" type="curve"/>
      <point x="126" y="358"/>
      <point x="170" y="451"/>
    </contour>
  </outline>
</glyph>
<glyph name="uni0EC8" format="2">
  <advance width="-97"/>
  <unicode hex="0EC8"/>
  <anchor x="-263" y="841" name="_top"/>
  <anchor x="-270" y="886" name="_tonemark"/>
  <outline>
    <contour>
      <point x="-269" y="1077" type="curve" smooth="yes"/>
      <point x="-308" y="1077"/>
      <point x="-315" y="1073"/>
      <point x="-310" y="990" type="curve" smooth="yes"/>
      <point x="-306" y="918"/>
      <point x="-309" y="906"/>
      <point x="-263" y="909" type="curve" smooth="yes"/>
      <point x="-231" y="911"/>
      <point x="-212" y="934"/>
      <point x="-216" y="996" type="curve" smooth="yes"/>
      <point x="-221" y="1074"/>
      <point x="-224" y="1077"/>
    </contour>
  </outline>
</glyph>
<glyph name="uni0ECB" format="2">
  <advance width="4"/>
  <unicode hex="0ECB"/>
  <anchor x="-237" y="745" name="_top"/>
  <anchor x="-237" y="794" name="_tonemark"/>
  <outline>
    <contour>
      <point x="-281" y="1012" type="curve" smooth="yes"/>
      <point x="-280" y="1024"/>
      <point x="-276" y="1033"/>
      <point x="-267" y="1035" type="curve" smooth="yes"/>
      <point x="-232" y="1043"/>
      <point x="-198" y="1046"/>
      <point x="-175" y="1035" type="curve" smooth="yes"/>
      <point x="-164" y="1030"/>
      <point x="-191" y="1014"/>
      <point x="-193" y="998" type="curve" smooth="yes"/>
      <point x="-199" y="933"/>
      <point x="-172" y="852"/>
      <point x="-193" y="834" type="curve" smooth="yes"/>
      <point x="-218" y="812"/>
      <point x="-276" y="819"/>
      <point x="-301" y="831" type="curve" smooth="yes"/>
      <point x="-316" y="838"/>
      <point x="-290" y="850"/>
      <point x="-288" y="864" type="curve" smooth="yes"/>
      <point x="-279" y="920"/>
      <point x="-288" y="955"/>
    </contour>
    <contour>
      <point x="-162" y="897" type="curve" smooth="yes"/>
      <point x="-219" y="899"/>
      <point x="-255" y="907"/>
      <point x="-313" y="907" type="curve" smooth="yes"/>
      <point x="-326" y="907"/>
      <point x="-339" y="903"/>
      <point x="-343" y="917" type="curve" smooth="yes"/>
      <point x="-352" y="945"/>
      <point x="-355" y="945"/>
      <point x="-330" y="966" type="curve" smooth="yes"/>
      <point x="-309" y="984"/>
      <point x="-232" y="959"/>
      <point x="-168" y="956" type="curve" smooth="yes"/>
      <point x="-152" y="955"/>
      <point x="-132" y="965"/>
      <point x="-129" y="953" type="curve" smooth="yes"/>
      <point x="-123" y="930"/>
      <point x="-123" y="940"/>
      <point x="-136" y="907" type="curve" smooth="yes"/>
      <point x="-140" y="898"/>
      <point x="-150" y="897"/>
    </contour>
  </outline>
</glyph>
<glyph name="uni0ECC" format="2">
  <advance width="4"/>
  <unicode hex="0ECC"/>
  <anchor x="-205" y="826" name="_top"/>
  <anchor x="-205" y="882" name="_tonemark"/>
  <outline>
    <contour>
      <point x="-76" y="1070" type="curve"/>
      <point x="-83" y="1013"/>
      <point x="-190" y="1025"/>
      <point x="-211" y="1006" type="curve"/>
      <point x="-206" y="996"/>
      <point x="-201" y="996"/>
      <point x="-196" y="991" type="curve" smooth="yes"/>
      <point x="-185" y="977"/>
      <point x="-177" y="953"/>
      <point x="-208" y="926" type="curve" smooth="yes"/>
      <point x="-239" y="899"/>
      <point x="-292" y="889"/>
      <point x="-320" y="922" type="curve" smooth="yes"/>
      <point x="-348" y="953"/>
      <point x="-334" y="1009"/>
      <point x="-296" y="1028" type="curve" smooth="yes"/>
      <point x="-233" y="1060"/>
      <point x="-153" y="1046"/>
    </contour>
  </outline>
</glyph>
<glyph name="uni0ECD" format="2">
  <advance width="28"/>
  <unicode hex="0ECD"/>
  <anchor x="-260" y="532" name="_top"/>
  <anchor x="-260" y="817" name="tonemark"/>
  <outline>
    <contour>
      <point x="-322" y="705" type="curve" smooth="yes"/>
      <point x="-322" y="727"/>
      <point x="-316" y="776"/>
      <point x="-254" y="776" type="curve" smooth="yes"/>
      <point x="-192" y="776"/>
      <point x="-198" y="727"/>
      <point x="-198" y="700" type="curve" smooth="yes"/>
      <point x="-198" y="684"/>
      <point x="-198" y="629"/>
      <point x="-260" y="629" type="curve" smooth="yes"/>
      <point x="-322" y="629"/>
      <point x="-322" y="684"/>
    </contour>
  </outline>
</glyph>
<glyph name="uni0ED0" format="2">
  <advance width="616"/>
  <unicode hex="0ED0"/>
  <outline>
    <contour>
      <point x="186" y="236" type="curve" smooth="yes"/>
      <point x="186" y="117"/>
      <point x="278" y="59"/>
      <point x="290" y="59" type="curve" smooth="yes"/>
      <point x="382" y="59"/>
      <point x="431" y="139"/>
      <point x="431" y="229" type="curve" smooth="yes"/>
      <point x="431" y="323"/>
      <point x="406" y="438"/>
      <point x="322" y="438" type="curve" smooth="yes"/>
      <point x="268" y="438"/>
      <point x="186" y="343"/>
    </contour>
    <contour>
      <point x="113" y="408" type="curve" smooth="yes"/>
      <point x="154" y="498"/>
      <point x="276" y="533"/>
      <point x="336" y="533" type="curve" smooth="yes"/>
      <point x="478" y="533"/>
      <point x="556" y="375"/>
      <point x="556" y="250" type="curve" smooth="yes"/>
      <point x="556" y="106"/>
      <point x="467" y="-19"/>
      <point x="316" y="-19" type="curve" smooth="yes"/>
      <point x="217" y="-19"/>
      <point x="84" y="68"/>
      <point x="84" y="239" type="curve" smooth="yes"/>
      <point x="84" y="310"/>
      <point x="84" y="344"/>
    </contour>
  </outline>
</glyph>
<glyph name="uni0ED1" format="2">
  <advance width="626"/>
  <unicode hex="0ED1"/>
  <outline>
    <contour>
      <point x="486" y="236" type="move"/>
      <point x="486" y="236"/>
      <point x="482" y="236"/>
      <point x="482" y="236" type="curve"/>
    </contour>
    <contour>
      <point x="68" y="367" type="curve" smooth="yes"/>
      <point x="68" y="252"/>
      <point x="199" y="184"/>
      <point x="308" y="189" type="curve" smooth="yes"/>
      <point x="370" y="192"/>
      <point x="408" y="256"/>
      <point x="413" y="267" type="curve" smooth="yes"/>
      <point x="431" y="306"/>
      <point x="390" y="365"/>
      <point x="354" y="366" type="curve" smooth="yes"/>
      <point x="304" y="367"/>
      <point x="298" y="354"/>
      <point x="251" y="314" type="curve" smooth="yes"/>
      <point x="229" y="295"/>
      <point x="147" y="355"/>
      <point x="192" y="436" type="curve" smooth="yes"/>
      <point x="207" y="463"/>
      <point x="302" y="477"/>
      <point x="327" y="477" type="curve" smooth="yes"/>
      <point x="408" y="477"/>
      <point x="486" y="375"/>
      <point x="486" y="284" type="curve" smooth="yes"/>
      <point x="486" y="215"/>
      <point x="495" y="71"/>
      <point x="318" y="-18" type="curve"/>
      <point x="497" y="-18"/>
      <point x="605" y="130"/>
      <point x="605" y="289" type="curve" smooth="yes"/>
      <point x="605" y="432"/>
      <point x="502" y="572"/>
      <point x="343" y="572" type="curve" smooth="yes"/>
      <point x="253" y="572"/>
      <point x="68" y="478"/>
    </contour>
  </outline>
</glyph>
<glyph name="uni0ED2" format="2">
  <advance width="622"/>
  <unicode hex="0ED2"/>
  <outline>
    <contour>
      <point x="213" y="206" type="curve" smooth="yes"/>
      <point x="194" y="276"/>
      <point x="213" y="382"/>
      <point x="234" y="415" type="curve" smooth="yes"/>
      <point x="288" y="500"/>
      <point x="427" y="533"/>
      <point x="500" y="613" type="curve" smooth="yes"/>
      <point x="543" y="659"/>
      <point x="553" y="676"/>
      <point x="556" y="763" type="curve" smooth="yes"/>
      <point x="557" y="781"/>
      <point x="550" y="811"/>
      <point x="535" y="803" type="curve" smooth="yes"/>
      <point x="440" y="754"/>
      <point x="504" y="719"/>
      <point x="461" y="684" type="curve" smooth="yes"/>
      <point x="371" y="612"/>
      <point x="231" y="567"/>
      <point x="169" y="483" type="curve" smooth="yes"/>
      <point x="83" y="366"/>
      <point x="93" y="218"/>
      <point x="148" y="113" type="curve" smooth="yes"/>
      <point x="184" y="44"/>
      <point x="235" y="8"/>
      <point x="397" y="25" type="curve" smooth="yes"/>
      <point x="532" y="39"/>
      <point x="601" y="132"/>
      <point x="575" y="264" type="curve" smooth="yes"/>
      <point x="557" y="357"/>
      <point x="462" y="359"/>
      <point x="406" y="337" type="curve" smooth="yes"/>
      <point x="351" y="316"/>
      <point x="337" y="279"/>
      <point x="349" y="247" type="curve" smooth="yes"/>
      <point x="360" y="217"/>
      <point x="384" y="178"/>
      <point x="445" y="198" type="curve" smooth="yes"/>
      <point x="501" y="217"/>
      <point x="519" y="252"/>
      <point x="484" y="295" type="curve"/>
      <point x="490" y="290"/>
      <point x="517" y="258"/>
      <point x="521" y="246" type="curve" smooth="yes"/>
      <point x="533" y="208"/>
      <point x="487" y="169"/>
      <point x="458" y="150" type="curve" smooth="yes"/>
      <point x="437" y="136"/>
      <point x="385" y="123"/>
      <point x="350" y="123" type="curve" smooth="yes"/>
      <point x="308" y="123"/>
      <point x="235" y="125"/>
    </contour>
  </outline>
</glyph>
<glyph name="uni0ED5" format="2">
  <advance width="648"/>
  <unicode hex="0ED5"/>
  <outline>
    <contour>
      <point x="253" y="526" type="move"/>
      <point x="253" y="526" type="line"/>
    </contour>
    <contour>
      <point x="461" y="600" type="curve" smooth="yes"/>
      <point x="515" y="612"/>
      <point x="437" y="673"/>
      <point x="535" y="719" type="curve" smooth="yes"/>
      <point x="565" y="733"/>
      <point x="557" y="697"/>
      <point x="556" y="679" type="curve" smooth="yes"/>
      <point x="553" y="592"/>
      <point x="535" y="551"/>
      <point x="483" y="548" type="curve" smooth="yes"/>
      <point x="437" y="545"/>
      <point x="421" y="524"/>
      <point x="352" y="542" type="curve" smooth="yes"/>
      <point x="310" y="553"/>
      <point x="279" y="563"/>
      <point x="266" y="595" type="curve" smooth="yes"/>
      <point x="241" y="655"/>
      <point x="279" y="699"/>
      <point x="313" y="714" type="curve" smooth="yes"/>
      <point x="375" y="742"/>
      <point x="424" y="702"/>
      <point x="435" y="691" type="curve" smooth="yes"/>
      <point x="452" y="673"/>
      <point x="464" y="622"/>
      <point x="455" y="595" type="curve" smooth="yes"/>
      <point x="405" y="446"/>
      <point x="237" y="545"/>
      <point x="195" y="379" type="curve" smooth="yes"/>
      <point x="176" y="302"/>
      <point x="188" y="209"/>
      <point x="242" y="161" type="curve" smooth="yes"/>
      <point x="277" y="130"/>
      <point x="315" y="93"/>
      <point x="378" y="125" type="curve" smooth="yes"/>
      <point x="457" y="164"/>
      <point x="531" y="218"/>
      <point x="600" y="161" type="curve" smooth="yes"/>
      <point x="672" y="101"/>
      <point x="620" y="0"/>
      <point x="542" y="0" type="curve" smooth="yes"/>
      <point x="417" y="0"/>
      <point x="449" y="139"/>
      <point x="429" y="241" type="curve" smooth="yes"/>
      <point x="418" y="298"/>
      <point x="434" y="379"/>
      <point x="489" y="387" type="curve" smooth="yes"/>
      <point x="600" y="403"/>
      <point x="549" y="441"/>
      <point x="594" y="451" type="curve" smooth="yes"/>
      <point x="628" y="459"/>
      <point x="639" y="445"/>
      <point x="632" y="414" type="curve" smooth="yes"/>
      <point x="611" y="315"/>
      <point x="581" y="321"/>
      <point x="512" y="314" type="curve" smooth="yes"/>
      <point x="495" y="312"/>
      <point x="499" y="277"/>
      <point x="500" y="259" type="curve" smooth="yes"/>
      <point x="504" y="176"/>
      <point x="505" y="72"/>
      <point x="542" y="48" type="curve" smooth="yes"/>
      <point x="562" y="35"/>
      <point x="572" y="62"/>
      <point x="557" y="74" type="curve" smooth="yes"/>
      <point x="523" y="101"/>
      <point x="480" y="80"/>
      <point x="446" y="52" type="curve" smooth="yes"/>
      <point x="348" y="-28"/>
      <point x="191" y="23"/>
      <point x="130" y="159" type="curve" smooth="yes"/>
      <point x="99" y="227"/>
      <point x="28" y="413"/>
      <point x="160" y="533" type="curve" smooth="yes"/>
      <point x="219" y="587"/>
      <point x="364" y="528"/>
      <point x="385" y="626" type="curve" smooth="yes"/>
      <point x="395" y="673"/>
      <point x="358" y="683"/>
      <point x="342" y="682" type="curve" smooth="yes"/>
      <point x="315" y="680"/>
      <point x="298" y="637"/>
      <point x="328" y="622" type="curve" smooth="yes"/>
      <point x="358" y="607"/>
      <point x="381" y="583"/>
    </contour>
  </outline>
</glyph>
<glyph name="uni0ED6" format="2">
  <advance width="667"/>
  <unicode hex="0ED6"/>
  <outline>
    <contour>
      <point x="137" y="364" type="curve" smooth="yes"/>
      <point x="137" y="523"/>
      <point x="176" y="577"/>
      <point x="249" y="577" type="curve" smooth="yes"/>
      <point x="299" y="577"/>
      <point x="322" y="523"/>
      <point x="322" y="476" type="curve" smooth="yes"/>
      <point x="322" y="430"/>
      <point x="275" y="430"/>
      <point x="249" y="395" type="curve" smooth="yes"/>
      <point x="218" y="352"/>
      <point x="228" y="228"/>
      <point x="230" y="192" type="curve"/>
      <point x="230" y="139"/>
      <point x="231" y="93"/>
      <point x="249" y="95" type="curve" smooth="yes"/>
      <point x="293" y="99"/>
      <point x="298" y="114"/>
      <point x="298" y="135" type="curve" smooth="yes"/>
      <point x="298" y="154"/>
      <point x="293" y="151"/>
      <point x="296" y="186" type="curve" smooth="yes"/>
      <point x="298" y="213"/>
      <point x="295" y="217"/>
      <point x="295" y="280" type="curve" smooth="yes"/>
      <point x="295" y="330"/>
      <point x="323" y="320"/>
      <point x="373" y="322" type="curve" smooth="yes"/>
      <point x="401" y="323"/>
      <point x="410" y="264"/>
      <point x="410" y="250" type="curve" smooth="yes"/>
      <point x="410" y="147"/>
      <point x="410" y="364"/>
      <point x="406" y="270" type="curve" smooth="yes"/>
      <point x="405" y="254"/>
      <point x="406" y="255"/>
      <point x="406" y="230" type="curve"/>
      <point x="404" y="100"/>
      <point x="331" y="-17"/>
      <point x="231" y="-17" type="curve" smooth="yes"/>
      <point x="157" y="-17"/>
      <point x="128" y="54"/>
      <point x="128" y="165" type="curve" smooth="yes"/>
      <point x="128" y="203"/>
      <point x="130" y="237"/>
      <point x="131" y="264" type="curve" smooth="yes"/>
      <point x="132" y="288"/>
      <point x="137" y="308"/>
    </contour>
    <contour>
      <point x="532" y="503" type="curve" smooth="yes"/>
      <point x="588" y="399"/>
      <point x="584" y="345"/>
      <point x="588" y="244" type="curve" smooth="yes"/>
      <point x="589" y="219"/>
      <point x="588" y="255"/>
      <point x="588" y="230" type="curve"/>
      <point x="585" y="30"/>
      <point x="479" y="-17"/>
      <point x="395" y="-17" type="curve" smooth="yes"/>
      <point x="333" y="-17"/>
      <point x="298" y="65"/>
      <point x="298" y="184" type="curve"/>
      <point x="400" y="197" type="line"/>
      <point x="400" y="144"/>
      <point x="398" y="95"/>
      <point x="419" y="95" type="curve" smooth="yes"/>
      <point x="445" y="95"/>
      <point x="483" y="153"/>
      <point x="483" y="216" type="curve" smooth="yes"/>
      <point x="483" y="301"/>
      <point x="487" y="370"/>
      <point x="481" y="439" type="curve"/>
      <point x="450" y="547"/>
      <point x="295" y="508"/>
      <point x="271" y="618" type="curve" smooth="yes"/>
      <point x="259" y="675"/>
      <point x="295" y="752"/>
      <point x="385" y="716" type="curve" smooth="yes"/>
      <point x="492" y="673"/>
      <point x="552" y="619"/>
      <point x="636" y="626" type="curve" smooth="yes"/>
      <point x="669" y="629"/>
      <point x="692" y="541"/>
      <point x="634" y="540" type="curve" smooth="yes"/>
      <point x="576" y="539"/>
      <point x="445" y="583"/>
      <point x="401" y="632" type="curve" smooth="yes"/>
      <point x="392" y="643"/>
      <point x="365" y="624"/>
      <point x="373" y="613" type="curve" smooth="yes"/>
      <point x="432" y="532"/>
      <point x="494" y="574"/>
    </contour>
  </outline>
</glyph>
<glyph name="uni20AD" format="2">
  <advance width="617"/>
  <unicode hex="20AD"/>
  <outline>
    <contour>
      <point x="327" y="527" type="curve" smooth="yes"/>
      <point x="219" y="423"/>
      <point x="90" y="316"/>
      <point x="90" y="291" type="curve" smooth="yes"/>
      <point x="90" y="278"/>
      <point x="343" y="1"/>
      <point x="357" y="-5" type="curve" smooth="yes"/>
      <point x="388" y="-17"/>
      <point x="529" y="-27"/>
      <point x="509" y="0" type="curve" smooth="yes"/>
      <point x="461" y="65"/>
      <point x="212" y="276"/>
      <point x="215" y="307" type="curve" smooth="yes"/>
      <point x="216" y="323"/>
      <point x="373" y="430"/>
      <point x="481" y="538" type="curve" smooth="yes"/>
      <point x="484" y="541"/>
      <point x="354" y="554"/>
    </contour>
    <contour>
      <point x="61" y="278" type="curve"/>
      <point x="60" y="139"/>
      <point x="59" y="-2"/>
      <point x="63" y="-6" type="curve" smooth="yes"/>
      <point x="81" y="-22"/>
      <point x="191" y="-27"/>
      <point x="178" y="-6" type="curve" smooth="yes"/>
      <point x="166" y="13"/>
      <point x="177" y="153"/>
      <point x="180" y="283" type="curve"/>
      <point x="273" y="286"/>
      <point x="288" y="273"/>
      <point x="381" y="259" type="curve" smooth="yes"/>
      <point x="399" y="256"/>
      <point x="406" y="338"/>
      <point x="395" y="339" type="curve" smooth="yes"/>
      <point x="383" y="340"/>
      <point x="282" y="345"/>
      <point x="177" y="345" type="curve"/>
      <point x="180" y="472"/>
      <point x="192" y="520"/>
      <point x="178" y="534" type="curve" smooth="yes"/>
      <point x="158" y="553"/>
      <point x="67" y="536"/>
      <point x="67" y="536" type="curve" smooth="yes"/>
      <point x="62" y="525"/>
      <point x="58" y="459"/>
      <point x="57" y="343" type="curve"/>
      <point x="40" y="343"/>
      <point x="27" y="341"/>
      <point x="22" y="339" type="curve" smooth="yes"/>
      <point x="13" y="336"/>
      <point x="-12" y="267"/>
      <point x="9" y="271" type="curve" smooth="yes"/>
      <point x="28" y="274"/>
      <point x="44" y="276"/>
    </contour>
  </outline>
  <guideline x="-576"/>
</glyph>
